General
Unique ID                                : 143390450845774369651314208068147970395 (0x6BDFFF0DAAFE72C5E45000125D71815B)
Complete name                            : SiM - Same Sky [WEB-DL 1080p AAC x264-SEKAI].mkv
Format                                   : Matroska
Format version                           : Version 4
File size                                : 241 MiB
Duration                                 : 5 min 24 s
Overall bit rate                         : 6 247 kb/s
Frame rate                               : 23.976 FPS
Title                                    : SiM - Same Sky [WEB-DL 1080p AAC x264-SEKAI]
Encoded date                             : 2025-08-12 14:54:16 UTC
Writing application                      : mkvmerge 94.0 ('Initiate') 64-bit
Writing library                          : libebml v1.4.5 + libmatroska v1.7.1
Website                                  : https://sekai-archivist.blogspot.com/

Video
ID                                       : 1
Format                                   : AVC
Format/Info                              : Advanced Video Codec
Format profile                           : High@L4.1
Format settings                          : CABAC / 5 Ref Frames
Format settings, CABAC                   : Yes
Format settings, Reference frames        : 5 frames
Format settings, Slice count             : 8 slices per frame
Codec ID                                 : V_MPEG4/ISO/AVC
Duration                                 : 5 min 24 s
Bit rate                                 : 5 998 kb/s
Width                                    : 1 912 pixels
Height                                   : 840 pixels
Display aspect ratio                     : 2.25:1
Frame rate mode                          : Constant
Frame rate                               : 23.976 (24000/1001) FPS
Color space                              : YUV
Chroma subsampling                       : 4:2:0 (Type 2)
Bit depth                                : 8 bits
Scan type                                : Progressive
Bits/(Pixel*Frame)                       : 0.156
Stream size                              : 232 MiB (96%)
Language                                 : Japanese
Default                                  : Yes
Forced                                   : No
Color range                              : Limited
Color primaries                          : BT.709
Transfer characteristics                 : BT.709
Matrix coefficients                      : BT.709

Audio
ID                                       : 2
Format                                   : AAC LC
Format/Info                              : Advanced Audio Codec Low Complexity
Codec ID                                 : A_AAC-2
Duration                                 : 5 min 24 s
Bit rate                                 : 248 kb/s
Channel(s)                               : 2 channels
Channel layout                           : L R
Sampling rate                            : 48.0 kHz
Frame rate                               : 46.875 FPS (1024 SPF)
Compression mode                         : Lossy
Stream size                              : 9.58 MiB (4%)
Language                                 : Japanese
Default                                  : Yes
Forced                                   : No


